<mxfile host="app.diagrams.net" modified="2022-06-02T11:44:27.428Z" agent="5.0 (Macintosh; Intel Mac OS X 10_15_7) AppleWebKit/537.36 (KHTML, like Gecko) Chrome/102.0.5005.61 Safari/537.36" etag="q0HoB5rlGhEPhT2c40N0" version="18.2.0" type="github">
  <diagram id="qEG29GzppgMQ6EskAuyx" name="Page-1">
    <mxGraphModel dx="1426" dy="793" grid="1" gridSize="10" guides="1" tooltips="1" connect="1" arrows="1" fold="1" page="1" pageScale="1" pageWidth="827" pageHeight="1169" math="0" shadow="0">
      <root>
        <mxCell id="0" />
        <mxCell id="1" parent="0" />
        <mxCell id="Ctoy03uefZ5JHMt1Kjl_-14" value="" style="edgeStyle=orthogonalEdgeStyle;rounded=0;orthogonalLoop=1;jettySize=auto;html=1;" edge="1" parent="1" source="Ctoy03uefZ5JHMt1Kjl_-1" target="Ctoy03uefZ5JHMt1Kjl_-13">
          <mxGeometry relative="1" as="geometry" />
        </mxCell>
        <mxCell id="Ctoy03uefZ5JHMt1Kjl_-1" value="访问保险详情页" style="rounded=1;whiteSpace=wrap;html=1;" vertex="1" parent="1">
          <mxGeometry x="120" y="220" width="100" height="40" as="geometry" />
        </mxCell>
        <mxCell id="Ctoy03uefZ5JHMt1Kjl_-16" value="否" style="edgeStyle=orthogonalEdgeStyle;rounded=0;orthogonalLoop=1;jettySize=auto;html=1;" edge="1" parent="1" source="Ctoy03uefZ5JHMt1Kjl_-13" target="Ctoy03uefZ5JHMt1Kjl_-15">
          <mxGeometry relative="1" as="geometry" />
        </mxCell>
        <mxCell id="Ctoy03uefZ5JHMt1Kjl_-18" value="" style="edgeStyle=orthogonalEdgeStyle;rounded=0;orthogonalLoop=1;jettySize=auto;html=1;" edge="1" parent="1" source="Ctoy03uefZ5JHMt1Kjl_-13" target="Ctoy03uefZ5JHMt1Kjl_-17">
          <mxGeometry relative="1" as="geometry" />
        </mxCell>
        <mxCell id="Ctoy03uefZ5JHMt1Kjl_-13" value="CDN缓存过期" style="rhombus;whiteSpace=wrap;html=1;rounded=0;" vertex="1" parent="1">
          <mxGeometry x="122" y="320" width="96" height="60" as="geometry" />
        </mxCell>
        <mxCell id="Ctoy03uefZ5JHMt1Kjl_-15" value="直接返回html" style="whiteSpace=wrap;html=1;rounded=0;" vertex="1" parent="1">
          <mxGeometry x="314" y="330" width="96" height="40" as="geometry" />
        </mxCell>
        <mxCell id="Ctoy03uefZ5JHMt1Kjl_-22" value="" style="edgeStyle=orthogonalEdgeStyle;rounded=0;orthogonalLoop=1;jettySize=auto;html=1;" edge="1" parent="1" source="Ctoy03uefZ5JHMt1Kjl_-17" target="Ctoy03uefZ5JHMt1Kjl_-21">
          <mxGeometry relative="1" as="geometry" />
        </mxCell>
        <mxCell id="Ctoy03uefZ5JHMt1Kjl_-17" value="网关" style="whiteSpace=wrap;html=1;rounded=0;" vertex="1" parent="1">
          <mxGeometry x="120" y="420" width="100" height="40" as="geometry" />
        </mxCell>
        <mxCell id="Ctoy03uefZ5JHMt1Kjl_-24" value="" style="edgeStyle=orthogonalEdgeStyle;rounded=0;orthogonalLoop=1;jettySize=auto;html=1;" edge="1" parent="1" source="Ctoy03uefZ5JHMt1Kjl_-21" target="Ctoy03uefZ5JHMt1Kjl_-23">
          <mxGeometry relative="1" as="geometry" />
        </mxCell>
        <mxCell id="Ctoy03uefZ5JHMt1Kjl_-21" value="SSR server" style="whiteSpace=wrap;html=1;rounded=0;" vertex="1" parent="1">
          <mxGeometry x="120" y="510" width="100" height="40" as="geometry" />
        </mxCell>
        <mxCell id="Ctoy03uefZ5JHMt1Kjl_-26" value="否" style="edgeStyle=orthogonalEdgeStyle;rounded=0;orthogonalLoop=1;jettySize=auto;html=1;" edge="1" parent="1" source="Ctoy03uefZ5JHMt1Kjl_-23" target="Ctoy03uefZ5JHMt1Kjl_-25">
          <mxGeometry relative="1" as="geometry" />
        </mxCell>
        <mxCell id="Ctoy03uefZ5JHMt1Kjl_-29" value="" style="edgeStyle=orthogonalEdgeStyle;rounded=0;orthogonalLoop=1;jettySize=auto;html=1;" edge="1" parent="1" source="Ctoy03uefZ5JHMt1Kjl_-23">
          <mxGeometry relative="1" as="geometry">
            <mxPoint x="170" y="710" as="targetPoint" />
          </mxGeometry>
        </mxCell>
        <mxCell id="Ctoy03uefZ5JHMt1Kjl_-33" value="是" style="edgeLabel;html=1;align=center;verticalAlign=middle;resizable=0;points=[];" vertex="1" connectable="0" parent="Ctoy03uefZ5JHMt1Kjl_-29">
          <mxGeometry x="-0.1532" relative="1" as="geometry">
            <mxPoint y="1" as="offset" />
          </mxGeometry>
        </mxCell>
        <mxCell id="Ctoy03uefZ5JHMt1Kjl_-23" value="匹配 redis 缓存" style="rhombus;whiteSpace=wrap;html=1;rounded=0;" vertex="1" parent="1">
          <mxGeometry x="102.5" y="594.5" width="135" height="60" as="geometry" />
        </mxCell>
        <mxCell id="Ctoy03uefZ5JHMt1Kjl_-36" value="" style="edgeStyle=orthogonalEdgeStyle;rounded=0;orthogonalLoop=1;jettySize=auto;html=1;" edge="1" parent="1" source="Ctoy03uefZ5JHMt1Kjl_-25" target="Ctoy03uefZ5JHMt1Kjl_-35">
          <mxGeometry relative="1" as="geometry" />
        </mxCell>
        <mxCell id="Ctoy03uefZ5JHMt1Kjl_-25" value="nuxt 渲染生成 html" style="whiteSpace=wrap;html=1;rounded=0;" vertex="1" parent="1">
          <mxGeometry x="301" y="602" width="106" height="45" as="geometry" />
        </mxCell>
        <mxCell id="Ctoy03uefZ5JHMt1Kjl_-42" style="edgeStyle=orthogonalEdgeStyle;rounded=0;orthogonalLoop=1;jettySize=auto;html=1;entryX=1;entryY=0.5;entryDx=0;entryDy=0;" edge="1" parent="1" source="Ctoy03uefZ5JHMt1Kjl_-35" target="Ctoy03uefZ5JHMt1Kjl_-39">
          <mxGeometry relative="1" as="geometry">
            <Array as="points">
              <mxPoint x="500" y="733" />
            </Array>
          </mxGeometry>
        </mxCell>
        <mxCell id="Ctoy03uefZ5JHMt1Kjl_-43" value="是" style="edgeLabel;html=1;align=center;verticalAlign=middle;resizable=0;points=[];" vertex="1" connectable="0" parent="Ctoy03uefZ5JHMt1Kjl_-42">
          <mxGeometry x="-0.5197" y="1" relative="1" as="geometry">
            <mxPoint as="offset" />
          </mxGeometry>
        </mxCell>
        <mxCell id="Ctoy03uefZ5JHMt1Kjl_-45" value="" style="edgeStyle=orthogonalEdgeStyle;rounded=0;orthogonalLoop=1;jettySize=auto;html=1;" edge="1" parent="1" source="Ctoy03uefZ5JHMt1Kjl_-35" target="Ctoy03uefZ5JHMt1Kjl_-44">
          <mxGeometry relative="1" as="geometry" />
        </mxCell>
        <mxCell id="Ctoy03uefZ5JHMt1Kjl_-46" value="否" style="edgeLabel;html=1;align=center;verticalAlign=middle;resizable=0;points=[];" vertex="1" connectable="0" parent="Ctoy03uefZ5JHMt1Kjl_-45">
          <mxGeometry x="-0.2123" y="-1" relative="1" as="geometry">
            <mxPoint as="offset" />
          </mxGeometry>
        </mxCell>
        <mxCell id="Ctoy03uefZ5JHMt1Kjl_-35" value="生成成功" style="rhombus;whiteSpace=wrap;html=1;rounded=0;" vertex="1" parent="1">
          <mxGeometry x="450" y="597.87" width="100" height="53.25" as="geometry" />
        </mxCell>
        <mxCell id="Ctoy03uefZ5JHMt1Kjl_-41" value="" style="edgeStyle=orthogonalEdgeStyle;rounded=0;orthogonalLoop=1;jettySize=auto;html=1;" edge="1" parent="1" source="Ctoy03uefZ5JHMt1Kjl_-39" target="Ctoy03uefZ5JHMt1Kjl_-40">
          <mxGeometry relative="1" as="geometry" />
        </mxCell>
        <mxCell id="Ctoy03uefZ5JHMt1Kjl_-39" value="缓存到 redis" style="whiteSpace=wrap;html=1;rounded=0;" vertex="1" parent="1">
          <mxGeometry x="301" y="710" width="106" height="45" as="geometry" />
        </mxCell>
        <mxCell id="Ctoy03uefZ5JHMt1Kjl_-40" value="返回 html" style="whiteSpace=wrap;html=1;rounded=0;" vertex="1" parent="1">
          <mxGeometry x="122" y="710" width="106" height="45" as="geometry" />
        </mxCell>
        <mxCell id="Ctoy03uefZ5JHMt1Kjl_-48" value="" style="edgeStyle=orthogonalEdgeStyle;rounded=0;orthogonalLoop=1;jettySize=auto;html=1;" edge="1" parent="1" source="Ctoy03uefZ5JHMt1Kjl_-44" target="Ctoy03uefZ5JHMt1Kjl_-47">
          <mxGeometry relative="1" as="geometry" />
        </mxCell>
        <mxCell id="Ctoy03uefZ5JHMt1Kjl_-44" value="生成超时" style="whiteSpace=wrap;html=1;rounded=0;" vertex="1" parent="1">
          <mxGeometry x="600" y="602" width="106" height="45" as="geometry" />
        </mxCell>
        <mxCell id="Ctoy03uefZ5JHMt1Kjl_-47" value="降级返回静态html" style="whiteSpace=wrap;html=1;rounded=0;" vertex="1" parent="1">
          <mxGeometry x="600" y="710" width="106" height="45" as="geometry" />
        </mxCell>
      </root>
    </mxGraphModel>
  </diagram>
</mxfile>
